<svg width="16" height="15" viewBox="0 0 16 15" fill="none" xmlns="http://www.w3.org/2000/svg">
<path d="M15.414 1.64824L14.2418 0.549316C13.8515 0.183105 13.3397 0 12.8278 0C12.3159 0 11.804 0.183105 11.4134 0.549023L0.401592 10.8727L0.00471867 14.2189C-0.0452811 14.6402 0.30878 15 0.748465 15C0.776278 15 0.80409 14.9985 0.832527 14.9956L4.39939 14.6262L15.4143 4.29961C16.1953 3.56748 16.1953 2.38037 15.414 1.64824ZM3.94033 13.7309L1.03315 14.0329L1.3569 11.3033L9.60343 3.57217L12.19 5.99707L3.94033 13.7309ZM14.7072 3.63691L12.8968 5.33408L10.3103 2.90918L12.1206 1.21201C12.3094 1.03506 12.5606 0.9375 12.8278 0.9375C13.095 0.9375 13.3459 1.03506 13.535 1.21201L14.7072 2.31094C15.0968 2.67656 15.0968 3.27129 14.7072 3.63691Z" fill="#116FDC"/>
</svg>
