<svg width="22" height="16" viewBox="0 0 22 16" fill="none" xmlns="http://www.w3.org/2000/svg">
<path fill-rule="evenodd" clip-rule="evenodd" d="M2.32377 7.61254C3.36295 5.79405 6.12966 2 11 2C15.8703 2 18.637 5.79405 19.6762 7.61254C19.7333 7.71243 19.7742 7.78405 19.8075 7.84639C19.8307 7.88967 19.8454 7.91957 19.8549 7.94043C19.8428 7.96219 19.824 7.99353 19.7942 8.03942C19.7541 8.101 19.7056 8.17147 19.6386 8.26868C19.0274 9.15542 17.9011 10.6117 16.3866 11.8373C14.8689 13.0656 13.0401 14 11 14C8.95991 14 7.13114 13.0656 5.61337 11.8373C4.09892 10.6117 2.97255 9.15542 2.36136 8.26868C2.29436 8.17147 2.24587 8.101 2.20582 8.03942C2.17597 7.99353 2.15717 7.9622 2.14508 7.94043C2.15457 7.91957 2.16929 7.88967 2.19247 7.84639C2.22585 7.78405 2.26669 7.71243 2.32377 7.61254ZM11 0C4.98186 0 1.69922 4.67446 0.587303 6.62023L0.547636 6.68914C0.361216 7.01182 0.11295 7.44156 0.137593 8.02574C0.162259 8.61048 0.450595 9.02442 0.667158 9.33532L0.714628 9.4037C1.38363 10.3743 2.63522 12 4.3552 13.3919C6.07185 14.7812 8.33398 16 11 16C13.666 16 15.9282 14.7812 17.6448 13.3919C19.3648 12 20.6164 10.3743 21.2854 9.4037L21.3328 9.33532C21.5494 9.02442 21.8377 8.61048 21.8624 8.02574C21.8871 7.44156 21.6388 7.01182 21.4524 6.68914L21.4127 6.62023C20.3008 4.67446 17.0181 0 11 0ZM11 12C13.2091 12 15 10.2091 15 8C15 5.79086 13.2091 4 11 4C8.79086 4 7 5.79086 7 8C7 10.2091 8.79086 12 11 12Z" fill="#116FDC"/>
</svg>
